<svg xmlns="http://www.w3.org/2000/svg" viewBox="0 0 512 512" role="img" aria-label="Scribe icon">
  <rect width="512" height="512" rx="96" fill="#26342a"/>
  <circle cx="388" cy="124" r="54" fill="#c83b2f"/>
  <rect x="106" y="82" width="252" height="344" rx="26" fill="#fff8ef"/>
  <rect x="132" y="118" width="160" height="14" rx="7" fill="#6f8f72"/>
  <rect x="132" y="158" width="172" height="14" rx="7" fill="#d8cebd"/>
  <rect x="132" y="198" width="138" height="14" rx="7" fill="#d8cebd"/>
  <path d="M278 244c0-30-24-54-54-54s-54 24-54 54v36c0 30 24 54 54 54s54-24 54-54v-36Z" fill="#6f746d"/>
  <rect x="198" y="218" width="52" height="88" rx="26" fill="#fff8ef"/>
  <path d="M144 270c0 44 36 80 80 80s80-36 80-80" fill="none" stroke="#6f746d" stroke-width="24" stroke-linecap="round"/>
  <rect x="212" y="344" width="24" height="58" rx="12" fill="#6f746d"/>
  <rect x="176" y="382" width="96" height="24" rx="12" fill="#6f746d"/>
</svg>
